<?xml version="1.0" encoding="UTF-8"?>
<!DOCTYPE svg PUBLIC "-//W3C//DTD SVG 1.1//EN" "http://www.w3.org/Graphics/SVG/1.1/DTD/svg11.dtd">

<svg xmlns="http://www.w3.org/2000/svg" xml:space="preserve" width="100%" height="100%" version="1.1" style="shape-rendering:geometricPrecision; text-rendering:geometricPrecision; image-rendering:optimizeQuality; fill-rule:evenodd; clip-rule:evenodd"
viewBox="0 0 5000 5000"
 xmlns:xlink="http://www.w3.org/1999/xlink">
 <defs>
  <style type="text/css">
   <![CDATA[
    .str0 {stroke:#434242;stroke-width:250;stroke-linecap:round}
    .str1 {stroke:#434242;stroke-width:300}
    .fil1 {fill:none}
    .fil0 {fill:#434242;fill-rule:nonzero}
   ]]>
  </style>
 </defs>
 <g id="Layer_x0020_1">
  <metadata id="CorelCorpID_0Corel-Layer"/>
  <g>
   <path class="fil0" d="M3683 1907l4 4 5 4 4 5 4 5 3 5 4 5 3 6 3 5 2 6 2 5 2 6 2 6 1 6 1 6 1 6 1 6 0 6 0 6 -1 6 0 6 -1 6 -1 5 -2 6 -2 6 -2 6 -2 5 -3 6 -3 5 -3 6 -4 5 -4 5 -4 5 -4 5 -5 4 -4 4 -5 4 -5 4 -6 3 -5 3 -5 3 -6 2 -5 3 -6 1 -6 2 -6 1 -6 2 -6 0 -6 1 -6 0 -6 0 -6 0 -6 -1 -5 -1 -6 -1 -6 -2 -6 -2 -6 -2 -5 -2 -6 -3 -5 -3 -6 -3 -5 -3 -5 -4 -5 -4 166 -187zm-1066 -613l-5 -5 171 -182 900 800 -166 187 -900 -800zm0 0l-3 -3 -2 -2 5 5zm-117 -319l8 0 13 1 12 1 13 1 12 2 13 2 12 2 11 3 12 3 11 3 11 4 11 4 10 5 10 4 10 5 9 6 9 5 9 5 8 6 8 6 7 5 8 6 7 6 6 5 6 6 6 6 6 5 6 5 5 5 5 5 5 5 5 5 4 5 -176 177 -5 -5 -5 -5 -4 -4 -4 -4 -4 -4 -4 -4 -4 -3 -3 -4 -3 -2 -3 -3 -3 -3 -3 -2 -3 -2 -3 -2 -2 -2 -2 -1 -3 -2 -2 -1 -2 -1 -3 -1 -2 -1 -3 -1 -3 -1 -3 -1 -3 -1 -3 -1 -4 -1 -4 0 -5 -1 -5 0 -6 -1 -6 0 8 0 -8 -250zm0 0l4 0 4 0 -8 0zm-283 132l-5 5 5 -6 6 -5 5 -6 6 -5 6 -6 7 -5 6 -6 7 -6 7 -5 7 -6 8 -6 7 -5 9 -6 8 -5 8 -5 9 -6 9 -5 10 -4 10 -5 10 -4 10 -5 10 -3 11 -4 11 -3 12 -3 11 -3 12 -2 12 -2 12 -2 12 -1 13 -1 12 -1 8 250 -5 0 -5 1 -5 0 -5 1 -4 0 -4 1 -4 1 -4 1 -3 1 -4 1 -3 2 -4 1 -3 1 -3 2 -3 2 -4 1 -3 2 -3 2 -3 2 -4 3 -3 2 -3 3 -4 2 -3 3 -4 3 -3 3 -4 4 -4 3 -4 4 -4 4 -4 3 -4 5 -5 5 -166 -187zm171 182l-2 2 -3 3 5 -5zm-905 805l-166 -187 900 -800 166 187 -900 800zm0 0l-5 4 -5 4 -5 3 -6 3 -5 3 -6 3 -5 2 -6 2 -6 2 -6 2 -6 1 -6 1 -6 1 -6 0 -5 0 -6 0 -6 -1 -6 0 -6 -2 -6 -1 -6 -2 -6 -1 -5 -3 -6 -2 -5 -3 -6 -3 -5 -3 -5 -4 -5 -4 -4 -4 -5 -4 -4 -5 -4 -5 -4 -5 -4 -5 -3 -6 -3 -5 -3 -6 -2 -5 -2 -6 -2 -6 -2 -6 -1 -5 -1 -6 0 -6 -1 -6 0 -6 0 -6 1 -6 1 -6 1 -6 1 -6 2 -6 2 -6 2 -5 2 -6 3 -5 3 -6 3 -5 4 -5 4 -5 4 -5 4 -4 5 -4 166 187z"/>
  </g>
  <line class="fil1 str0" x1="2500" y1="1100" x2="2497" y2= "3800" />
  <circle class="fil1 str1" cx="2500" cy="2500" r="2200"/>
 </g>
</svg>
