<?xml version="1.0" encoding="UTF-8"?>
<!DOCTYPE svg PUBLIC "-//W3C//DTD SVG 1.1//EN" "http://www.w3.org/Graphics/SVG/1.1/DTD/svg11.dtd">

<svg xmlns="http://www.w3.org/2000/svg" xml:space="preserve" width="100%" height="100%" version="1.1" style="shape-rendering:geometricPrecision; text-rendering:geometricPrecision; image-rendering:optimizeQuality; fill-rule:evenodd; clip-rule:evenodd"
viewBox="0 0 5000 5000"
 xmlns:xlink="http://www.w3.org/1999/xlink">
 <defs>
  <style type="text/css">
   <![CDATA[
    .str0 {stroke:#434242;stroke-width:250;stroke-linecap:round}
    .str1 {stroke:#434242;stroke-width:300}
    .fil1 {fill:none}
    .fil0 {fill:#434242;fill-rule:nonzero}
   ]]>
  </style>
 </defs>
 <g id="Layer_x0020_1">
  <metadata id="CorelCorpID_0Corel-Layer"/>
  <g>
   <path class="fil0" d="M3093 3683l-4 4 -4 5 -5 4 -5 4 -5 4 -5 3 -6 3 -5 3 -6 2 -5 2 -6 2 -6 2 -6 1 -6 1 -6 1 -6 1 -6 0 -6 0 -6 -1 -6 0 -5 -1 -6 -1 -6 -2 -6 -2 -6 -2 -5 -2 -6 -3 -5 -3 -6 -3 -5 -4 -5 -4 -5 -4 -5 -4 -4 -5 -4 -4 -4 -5 -4 -5 -3 -5 -3 -6 -3 -5 -2 -6 -3 -5 -1 -6 -2 -6 -1 -6 -1 -6 -1 -6 -1 -6 0 -6 0 -6 0 -6 1 -5 1 -6 1 -6 2 -6 2 -6 2 -6 2 -5 3 -6 3 -5 3 -6 3 -5 4 -5 4 -5 187 166zm613 -1066l6 -5 181 171 -800 900 -187 -166 800 -900zm0 0l3 -3 3 -2 -6 5zm319 -117l0 8 -1 13 -1 13 -1 12 -1 12 -3 13 -2 12 -3 11 -3 12 -3 11 -4 11 -4 11 -5 10 -4 10 -5 10 -6 9 -5 9 -5 9 -6 8 -6 8 -5 7 -6 8 -6 7 -5 6 -6 6 -6 6 -5 6 -5 6 -5 5 -5 5 -5 5 -5 5 -5 4 -176 -176 4 -5 5 -5 4 -4 4 -4 4 -4 4 -4 3 -3 4 -4 2 -3 3 -3 3 -3 2 -3 2 -3 2 -2 2 -3 1 -2 2 -3 1 -2 1 -2 1 -3 1 -2 1 -3 1 -3 1 -3 1 -3 1 -3 1 -4 0 -4 1 -5 0 -5 1 -6 0 -5 0 7 250 -8zm0 0l0 4 0 4 0 -8zm-132 -283l-5 -5 6 5 5 6 6 5 5 6 6 6 5 7 6 6 6 7 5 7 6 7 6 8 5 7 6 9 5 8 5 8 6 9 5 9 4 10 5 10 4 10 5 10 3 10 4 11 3 11 3 12 3 11 2 12 2 12 2 12 1 12 1 13 1 12 -250 8 0 -5 -1 -5 0 -5 -1 -5 0 -4 -1 -4 -1 -4 -1 -4 -1 -3 -1 -4 -2 -3 -1 -4 -1 -3 -2 -3 -2 -3 -1 -3 -2 -4 -2 -3 -2 -3 -3 -4 -2 -3 -3 -3 -2 -4 -3 -3 -3 -4 -3 -3 -4 -4 -3 -4 -4 -4 -4 -4 -3 -4 -4 -4 -6 -5 187 -166zm-181 171l-3 -2 -3 -3 6 5zm-806 -905l187 -166 800 900 -187 166 -800 -900zm0 0l-4 -5 -4 -5 -3 -5 -3 -6 -3 -5 -3 -6 -2 -5 -2 -6 -2 -6 -2 -6 -1 -6 -1 -6 -1 -5 0 -6 0 -6 0 -6 1 -6 1 -6 1 -6 1 -6 2 -6 1 -6 3 -5 2 -6 3 -5 3 -6 3 -5 4 -5 4 -5 4 -4 4 -5 5 -4 5 -4 5 -4 5 -4 6 -3 5 -3 6 -3 5 -2 6 -2 6 -2 6 -2 6 -1 5 -1 6 0 6 -1 6 0 6 0 6 1 6 1 6 1 6 1 6 2 6 2 5 2 6 2 5 3 6 3 5 3 5 4 5 4 5 4 4 5 4 4 -187 166z"/>
  </g>
  <line class="fil1 str0" x1="3900" y1="2500" x2="1200" y2= "2497" />
  <circle class="fil1 str1" transform="matrix(2.64845E-014 1 1 -2.64845E-014 2499.99 2500.02)" r="2200"/>
 </g>
</svg>
