<?xml version="1.0" encoding="UTF-8"?>
<!DOCTYPE svg PUBLIC "-//W3C//DTD SVG 1.1//EN" "http://www.w3.org/Graphics/SVG/1.1/DTD/svg11.dtd">

<svg xmlns="http://www.w3.org/2000/svg" xml:space="preserve" width="100%" height="100%" version="1.1" style="shape-rendering:geometricPrecision; text-rendering:geometricPrecision; image-rendering:optimizeQuality; fill-rule:evenodd; clip-rule:evenodd"
viewBox="0 0 500 500"
 xmlns:xlink="http://www.w3.org/1999/xlink">
 <defs>
  <style type="text/css">
   <![CDATA[
    .str0 {stroke:#2B2A29;stroke-width:10}
    .fil0 {fill:url(#id0)}
   ]]>
  </style>
  <radialGradient id="id0" gradientUnits="objectBoundingBox" cx="50%" cy="48%" r="50%" fx="50%" fy="48%">
   <stop offset="0" style="stop-color:#00AAFF"/>
   <stop offset="1" style="stop-color:#008BFF"/>
  </radialGradient>
 </defs>
 <g id="Layer_x0020_1">
  <metadata id="CorelCorpID_0Corel-Layer"/>
  <path class="fil0 str0" d="M308 366l-18 0 0 -77 77 0 0 18c0,14 3,17 7,21 7,7 21,7 28,0l64 -64c7,-7 7,-21 0,-28l-64 -64c-7,-7 -21,-7 -28,0 -4,4 -7,7 -7,21l0 16 -77 0 0 -75 18 0c14,0 17,-3 21,-7 7,-7 7,-21 0,-28l-64 -64c-7,-7 -21,-7 -28,0l-64 64c-7,7 -7,21 0,28 4,4 7,7 22,7l15 0 0 75 -75 0 0 -16c0,-14 -3,-17 -7,-21 -7,-7 -21,-7 -28,0l-64 64c-7,7 -7,21 0,28l64 64c7,7 21,7 28,0 4,-4 7,-7 7,-21l0 -18 75 0 0 77 -15 0c-15,0 -18,3 -22,7 -7,7 -7,21 0,28l64 64c7,7 21,7 28,0l64 -64c7,-7 7,-21 0,-28 -4,-4 -7,-7 -21,-7z"/>
 </g>
</svg>
