<?xml version="1.0" encoding="UTF-8"?>
<!DOCTYPE svg PUBLIC "-//W3C//DTD SVG 1.1//EN" "http://www.w3.org/Graphics/SVG/1.1/DTD/svg11.dtd">
<!-- Creator: CorelDRAW X6 -->
<svg xmlns="http://www.w3.org/2000/svg" xml:space="preserve" width="100%" height="100%" version="1.1" shape-rendering="geometricPrecision" text-rendering="geometricPrecision" image-rendering="optimizeQuality" fill-rule="evenodd" clip-rule="evenodd"
viewBox="0 0 500 500"
 xmlns:xlink="http://www.w3.org/1999/xlink">
 <g id="Layer_x0020_1">
  <metadata id="CorelCorpID_0Corel-Layer"/>
  <path fill="#279DFF" stroke="#434242" stroke-width="10" d="M200 340l250 0c6,0 10,4 10,10l0 100c0,6 -4,10 -10,10l-250 0c-6,0 -10,-4 -10,-10l0 -100c0,-6 4,-10 10,-10zm0 -300l250 0c6,0 10,4 10,10l0 100c0,6 -4,10 -10,10l-250 0c-6,0 -10,-4 -10,-10l0 -100c0,-6 4,-10 10,-10zm0 150l250 0c6,0 10,4 10,10l0 100c0,6 -4,10 -10,10l-250 0c-6,0 -10,-4 -10,-10l0 -100c0,-6 4,-10 10,-10zm-150 150l100 0c6,0 10,4 10,10l0 100c0,6 -4,10 -10,10l-100 0c-6,0 -10,-4 -10,-10l0 -100c0,-6 4,-10 10,-10zm0 -300l100 0c6,0 10,4 10,10l0 100c0,6 -4,10 -10,10l-100 0c-6,0 -10,-4 -10,-10l0 -100c0,-6 4,-10 10,-10zm0 150l100 0c6,0 10,4 10,10l0 100c0,6 -4,10 -10,10l-100 0c-6,0 -10,-4 -10,-10l0 -100c0,-6 4,-10 10,-10z"/>
 </g>
</svg>
