<?xml version="1.0" encoding="UTF-8" standalone="no"?>
<!-- Created with Inkscape (http://www.inkscape.org/) -->

<svg
   width="210mm"
   height="297mm"
   viewBox="0 0 210 297"
   version="1.1"
   id="svg5"
   inkscape:version="1.1 (c4e8f9e, 2021-05-24)"
   sodipodi:docname="drafts.svg"
   xmlns:inkscape="http://www.inkscape.org/namespaces/inkscape"
   xmlns:sodipodi="http://sodipodi.sourceforge.net/DTD/sodipodi-0.dtd"
   xmlns="http://www.w3.org/2000/svg"
   xmlns:svg="http://www.w3.org/2000/svg">
  <sodipodi:namedview
     id="namedview7"
     pagecolor="#ffffff"
     bordercolor="#666666"
     borderopacity="1.0"
     inkscape:pageshadow="2"
     inkscape:pageopacity="0.0"
     inkscape:pagecheckerboard="0"
     inkscape:document-units="mm"
     showgrid="true"
     showguides="true"
     inkscape:zoom="2.3251574"
     inkscape:cx="431.15361"
     inkscape:cy="232.45738"
     inkscape:window-width="1440"
     inkscape:window-height="855"
     inkscape:window-x="0"
     inkscape:window-y="23"
     inkscape:window-maximized="1"
     inkscape:current-layer="layer1"
     gridtolerance="6.2"
     objecttolerance="10000"
     inkscape:snap-global="false">
    <inkscape:grid
       type="xygrid"
       id="grid9"
       snapvisiblegridlinesonly="true" />
  </sodipodi:namedview>
  <defs
     id="defs2">
    <inkscape:path-effect
       effect="ruler"
       id="path-effect2730"
       is_visible="true"
       lpeversion="1"
       unit="px"
       mark_distance="20"
       mark_length="14"
       minor_mark_length="7"
       major_mark_steps="5"
       shift="0"
       offset="0"
       mark_dir="left"
       border_marks="both" />
    <inkscape:path-effect
       effect="bend_path"
       id="path-effect2301"
       is_visible="true"
       lpeversion="1"
       bendpath="m 94.789265,55.825178 c 10.479605,0.08109 13.258965,0.523137 36.628835,0"
       prop_scale="1.1492802"
       scale_y_rel="false"
       vertical="false"
       hide_knot="false"
       bendpath-nodetypes="cc" />
  </defs>
  <g
     inkscape:label="Layer 1"
     inkscape:groupmode="layer"
     id="layer1">
    <path
       style="fill:#000000;fill-opacity:1;fill-rule:nonzero;stroke:none;stroke-width:0.264583"
       id="path781"
       d="m 55.928069,55.448829 c -2.603683,2.929877 -3.478041,4.236799 -7.038843,6.567691 -2.483622,1.625772 -5.109937,2.977677 -8.174027,2.512528 -0.981212,-0.148955 -1.989817,-0.552722 -2.707849,-1.23785 -0.530066,-0.505775 -0.502269,-1.376532 -0.753403,-2.064798 0.424574,-0.668038 0.702775,-1.455883 1.273722,-2.004118 1.908167,-1.832258 4.46522,-3.100451 7.265874,-2.042284 2.492256,0.941641 4.538808,2.798273 6.712275,4.339071 2.972385,2.10716 5.809954,4.398317 8.714933,6.597475 0.23499,0.185518 1.284441,-1.143788 1.049452,-1.329306 v 0 C 59.93008,64.862677 49.100644,55.495512 45.612706,54.298619 c -3.503653,-1.202282 -8.255564,0.822582 -10.156823,3.863964 -0.864526,1.382954 -0.710062,3.18366 -1.065093,4.775489 0.83439,1.127524 1.352822,2.579941 2.503175,3.382571 1.20772,0.842658 2.749603,1.223139 4.219782,1.308203 3.548128,0.205287 6.627111,-1.60841 9.47071,-3.408524 3.864879,-2.446626 4.956407,-3.622984 8.119051,-6.458627 0.408861,-0.490633 -2.366579,-2.803499 -2.775439,-2.312866 z" />
    <g
       id="g10422"
       inkscape:label="Eye"
       transform="matrix(1.5120621,0,0,1.4978382,-40.851177,-66.205655)">
      <path
         style="display:inline;fill:#ff0066;fill-opacity:1;stroke-width:0.264583"
         id="path4010"
         inkscape:label="Iris"
         sodipodi:type="arc"
         sodipodi:cx="96"
         sodipodi:cy="81.672012"
         sodipodi:rx="4"
         sodipodi:ry="4"
         sodipodi:start="5.6025069"
         sodipodi:end="5.4977871"
         sodipodi:arc-type="slice"
         d="m 99.108584,79.154731 a 4,4 0 0 1 -0.510792,5.558905 4,4 0 0 1 -5.570371,-0.365101 4,4 0 0 1 0.219161,-5.57802 4,4 0 0 1 5.581845,0.07307 L 96,81.672012 Z" />
      <circle
         style="fill:#000000"
         id="path10223"
         cx="96"
         cy="81.672012"
         r="2"
         inkscape:label="Pupil" />
    </g>
    <path
       id="path1018"
       style="fill:#000000;fill-opacity:1;fill-rule:nonzero;stroke:none;stroke-width:0.999999"
       inkscape:transform-center-x="0.66989064"
       inkscape:transform-center-y="0.25120923"
       d="m 391.18945,177.7207 c -2.60078,-0.005 -5.22486,0.21877 -7.84961,0.22657 -3.89023,1.51405 -8.22109,2.03961 -11.73046,4.55664 -7.24863,5.19891 -12.84651,15.78318 -13.61524,25.31054 -0.91733,11.36913 3.9953,23.92853 11.69336,30.80664 4.05933,3.62696 9.51869,4.38429 14.34375,6.59571 5.86428,-0.10674 11.8722,0.76904 17.7793,-0.3418 2.45386,-0.46145 4.79335,-1.0957 7.04883,-1.875 8.77341,-3.04504 16.15226,-8.3041 24.04882,-14.07812 2.69175,-1.96823 5.36945,-3.95351 8.00977,-5.99219 4.56542,3.02298 9.24407,5.84803 13.85351,8.81445 15.78445,6.37797 16.85148,8.36943 17.87305,9.4043 0.70969,0.71893 1.4274,0.96869 7.04297,1.80273 a 11.868141,17.090124 0 0 1 -0.21484,-3.05664 11.868141,17.090124 0 0 1 1.55468,-8.44531 c -12.79999,-4.09711 -12.19656,-4.26659 -21.72851,-8.51367 -3.3031,-2.33317 -6.65495,-4.56979 -9.95899,-6.88282 0.21279,-0.18549 0.42685,-0.36976 0.63868,-0.55664 7.71182,-6.80378 14.30958,-15.10171 21.96093,-21.91992 1.67112,-2.00125 -8.20193,-13.04617 -9.87304,-11.04492 -6.41938,9.91498 -13.42276,18.94671 -21.5,26.82227 -5.0057,-4.56325 -23.41143,-21.5699 -25.07618,-22.83204 -1.95598,-1.48292 -3.93432,-2.7734 -5.95312,-3.8789 -4.61514,-2.53528 -9.47709,-4.09824 -14.81836,-4.73242 -1.17079,-0.13902 -2.34712,-0.18718 -3.5293,-0.18946 z m -4.60742,13.84375 c 6.83414,0.38166 9.16083,-0.10306 15.65625,2.75 2.52677,1.10987 4.8706,2.47776 7.12305,4.00391 4.11742,2.7856 7.9317,6.09477 11.99023,9.35156 3.66894,2.94416 7.22585,6.10111 10.91992,9.03906 -1.5397,1.23515 -3.11679,2.43197 -4.73437,3.58985 -4.45391,3.18816 -9.28217,5.71153 -14.1875,7.96094 -1.43936,0.66004 -2.88657,1.32565 -4.34766,1.95703 -3.37795,1.45595 -6.81527,2.72745 -10.35351,3.33203 -4.83568,0.82626 -9.74488,-0.15626 -14.57617,-0.24024 -3.24537,-2.11537 -7.06012,-3.32281 -9.70118,-6.33203 -8.88919,-10.12833 -4.58702,-28.46291 5.4668,-34.07617 2.05739,-1.14868 4.50039,-0.89091 6.74414,-1.33594 z"
       transform="scale(0.26458333)" />
  </g>
</svg>
