<?xml version="1.0" encoding="UTF-8"?>
<!DOCTYPE svg PUBLIC "-//W3C//DTD SVG 1.1//EN" "http://www.w3.org/Graphics/SVG/1.1/DTD/svg11.dtd">

<svg xmlns="http://www.w3.org/2000/svg" xml:space="preserve" width="100%" height="100%" version="1.1" style="shape-rendering:geometricPrecision; text-rendering:geometricPrecision; image-rendering:optimizeQuality; fill-rule:evenodd; clip-rule:evenodd"
viewBox="0 0 5000 5000"
 xmlns:xlink="http://www.w3.org/1999/xlink">
 <defs>
  <style type="text/css">
   <![CDATA[
    .str0 {stroke:#2B2A29;stroke-width:100;stroke-linejoin:round}
    .fil0 {fill:url(#id0)}
   ]]>
  </style>
  <radialGradient id="id0" gradientUnits="objectBoundingBox" cx="50%" cy="48%" r="50%" fx="50%" fy="48%">
   <stop offset="0" style="stop-color:#00AAFF"/>
   <stop offset="1" style="stop-color:#008BFF"/>
  </radialGradient>
 </defs>
 <g id="Layer_x0020_1">
  <metadata id="CorelCorpID_0Corel-Layer"/>
  <path class="fil0 str0" d="M2385 2065c-49,-367 -202,-635 -285,-1065 -50,-300 100,-600 400,-600 300,0 450,300 400,600 -83,430 -236,698 -285,1065 79,21 149,62 204,118 293,-226 450,-492 780,-779 235,-194 570,-214 720,46 150,260 -35,540 -320,646 -414,143 -723,145 -1065,286 11,38 16,77 16,118 0,41 -5,80 -16,118 342,141 651,143 1065,286 285,106 470,386 320,646 -150,260 -485,240 -720,46 -330,-287 -487,-553 -780,-779 -55,56 -125,97 -204,118 49,367 202,635 285,1065 50,300 -100,600 -400,600 -300,0 -450,-300 -400,-600 83,-430 236,-698 285,-1065 -79,-21 -149,-62 -204,-118 -293,226 -450,492 -780,779 -235,194 -570,214 -720,-46 -150,-260 35,-540 320,-646 414,-143 723,-145 1065,-286 -11,-38 -16,-77 -16,-118 0,-41 5,-80 16,-117 -342,-142 -651,-144 -1065,-287 -285,-106 -470,-386 -320,-646 150,-260 485,-240 720,-46 330,287 487,553 780,779 55,-56 125,-97 204,-118z"/>
 </g>
</svg>
