<?xml version="1.0" encoding="UTF-8"?>
<!DOCTYPE svg PUBLIC "-//W3C//DTD SVG 1.1//EN" "http://www.w3.org/Graphics/SVG/1.1/DTD/svg11.dtd">

<svg xmlns="http://www.w3.org/2000/svg" xml:space="preserve" width="100%" height="100%" version="1.1" style="shape-rendering:geometricPrecision; text-rendering:geometricPrecision; image-rendering:optimizeQuality; fill-rule:evenodd; clip-rule:evenodd"
viewBox="0 0 5000 5000"
 xmlns:xlink="http://www.w3.org/1999/xlink">
 <defs>
  <style type="text/css">
   <![CDATA[
    .str0 {stroke:#434242;stroke-width:100}
    .fil0 {fill:url(#id0)}
    .fil2 {fill:url(#id1)}
    .fil1 {fill:url(#id2)}
   ]]>
  </style>
  <radialGradient id="id0" gradientUnits="objectBoundingBox" cx="48%" cy="50%" r="50%" fx="48%" fy="50%">
   <stop offset="0" style="stop-color:#00AAFF"/>
   <stop offset="1" style="stop-color:#008BFF"/>
  </radialGradient>
  <radialGradient id="id1" gradientUnits="objectBoundingBox" cx="50%" cy="50%" r="37.9997%" fx="50%" fy="50%">
   <stop offset="0" style="stop-color:#FEFEFE"/>
   <stop offset="1" style="stop-color:#FFFFFF"/>
  </radialGradient>
  <radialGradient id="id2" gradientUnits="objectBoundingBox" cx="50.0006%" cy="50%" r="37.9999%" fx="50.0006%" fy="50%">
   <stop offset="0" style="stop-color:#FFFFFF"/>
   <stop offset="1" style="stop-color:#FCFCFD"/>
  </radialGradient>
 </defs>
 <g id="Layer_x0020_1">
  <metadata id="CorelCorpID_0Corel-Layer"/>
  <path class="fil0 str0" d="M300 2500c0,1215 985,2200 2200,2200 1215,0 2200,-985 2200,-2200 0,-1215 -985,-2200 -2200,-2200 -1215,0 -2200,985 -2200,2200z"/>
  <path class="fil1 str0" d="M2564 3250l-128 0c-15,-201 -61,-444 -138,-730l-157 -576c-94,-344 -141,-592 -141,-742 0,-135 46,-245 138,-328 92,-83 213,-124 361,-124 144,0 264,41 359,125 95,84 142,191 142,319 0,134 -50,384 -151,750l-161 576c-56,205 -97,448 -124,730z"/>
  <circle class="fil2 str0" cx="2500" cy="3800" r="400"/>
 </g>
</svg>
