<?xml version="1.0" encoding="UTF-8"?>
<!DOCTYPE svg PUBLIC "-//W3C//DTD SVG 1.1//EN" "http://www.w3.org/Graphics/SVG/1.1/DTD/svg11.dtd">
<!-- Creator: CorelDRAW X6 -->
<svg xmlns="http://www.w3.org/2000/svg" xml:space="preserve" width="100%" height="100%" version="1.1" style="shape-rendering:geometricPrecision; text-rendering:geometricPrecision; image-rendering:optimizeQuality; fill-rule:evenodd; clip-rule:evenodd"
viewBox="0 0 500 500"
 xmlns:xlink="http://www.w3.org/1999/xlink">
 <defs>
  <style type="text/css">
   <![CDATA[
    .str1 {stroke:#2B2A29;stroke-width:0.1}
    .str0 {stroke:#434242;stroke-width:10}
    .str2 {stroke:#333333;stroke-width:20;stroke-linecap:round}
    .fil2 {fill:none}
    .fil0 {fill:url(#id0)}
    .fil1 {fill:url(#id1)}
   ]]>
  </style>
  <linearGradient id="id0" gradientUnits="userSpaceOnUse" x1="250.05" y1="257.25" x2="250.05" y2="112.852">
   <stop offset="0" style="stop-color:#FCFCFD"/>
   <stop offset="1" style="stop-color:#EDEDED"/>
  </linearGradient>
  <linearGradient id="id1" gradientUnits="userSpaceOnUse" x1="257.779" y1="263.852" x2="257.779" y2="386.252">
   <stop offset="0" style="stop-color:#008BFF"/>
   <stop offset="1" style="stop-color:#00AAFF"/>
  </linearGradient>
 </defs>
 <g id="Layer_x0020_1">
  <metadata id="CorelCorpID_0Corel-Layer"/>
  <path class="fil0 str0" d="M50 280l0 -180c0,-5 5,-10 10,-10l140 0c20,0 20,30 40,30l200 0c6,0 10,5 10,10l0 150 -400 0z"/>
  <path class="fil1 str0" d="M60 410l380 0c5,0 9,-5 10,-10l25 -150c1,-5 -5,-10 -10,-10l-160 0c-20,0 -20,30 -40,30l-215 0c-5,0 -10,5 -10,10l10 120c1,6 5,10 10,10z"/>
  <rect class="fil2 str1" width="500" height="500"/>
  <line class="fil2 str2" x1="85" y1="120" x2="185" y2= "120" />
 </g>
</svg>
