<?xml version="1.0" encoding="UTF-8"?>
<!DOCTYPE svg PUBLIC "-//W3C//DTD SVG 1.1//EN" "http://www.w3.org/Graphics/SVG/1.1/DTD/svg11.dtd">
<!-- Creator: CorelDRAW X6 -->
<svg xmlns="http://www.w3.org/2000/svg" xml:space="preserve" width="100%" height="100%" version="1.1" shape-rendering="geometricPrecision" text-rendering="geometricPrecision" image-rendering="optimizeQuality" fill-rule="evenodd" clip-rule="evenodd"
viewBox="0 0 500 500"
 xmlns:xlink="http://www.w3.org/1999/xlink">
 <defs>
   <linearGradient id="id0" gradientUnits="userSpaceOnUse" x1="459.998" y1="249.999" x2="40" y2="249.999">
    <stop offset="0" stop-color="#008BFF"/>
    <stop offset="1" stop-color="#00AAFF"/>
   </linearGradient>
 </defs>
 <g id="Layer_x0020_1">
  <metadata id="CorelCorpID_0Corel-Layer"/>
  <path fill="url(#id0)" stroke="#434242" stroke-width="10" d="M56 40l155 0c9,0 16,7 16,16l0 155c0,9 -7,16 -16,16l-155 0c-9,0 -16,-7 -16,-16l0 -155c0,-9 7,-16 16,-16zm0 233l155 0c9,0 16,7 16,16l0 155c0,9 -7,16 -16,16l-155 0c-9,0 -16,-7 -16,-16l0 -155c0,-9 7,-16 16,-16zm233 -233l155 0c9,0 16,7 16,16l0 155c0,9 -7,16 -16,16l-155 0c-9,0 -16,-7 -16,-16l0 -155c0,-9 7,-16 16,-16zm0 233l155 0c9,0 16,7 16,16l0 155c0,9 -7,16 -16,16l-155 0c-9,0 -16,-7 -16,-16l0 -155c0,-9 7,-16 16,-16z"/>
 </g>
</svg>
