<?xml version="1.0" encoding="UTF-8"?>
<!DOCTYPE svg PUBLIC "-//W3C//DTD SVG 1.1//EN" "http://www.w3.org/Graphics/SVG/1.1/DTD/svg11.dtd">
<!-- Creator: CorelDRAW X6 -->
<svg xmlns="http://www.w3.org/2000/svg" xml:space="preserve" width="100%" height="100%" version="1.1" shape-rendering="geometricPrecision" text-rendering="geometricPrecision" image-rendering="optimizeQuality" fill-rule="evenodd" clip-rule="evenodd"
viewBox="0 0 500 500"
 xmlns:xlink="http://www.w3.org/1999/xlink">
 <defs>
   <linearGradient id="id0" gradientUnits="userSpaceOnUse" x1="249.999" y1="50" x2="249.999" y2="430.309">
    <stop offset="0" stop-color="#008BFF"/>
    <stop offset="1" stop-color="#00AAFF"/>
   </linearGradient>
   <linearGradient id="id1" gradientUnits="userSpaceOnUse" x1="250" y1="212.21" x2="250" y2="325.856">
    <stop offset="0" stop-color="#FCFCFD"/>
    <stop offset="1" stop-color="#FFFFFF"/>
   </linearGradient>
 </defs>
 <g id="Layer_x0020_1">
  <metadata id="CorelCorpID_0Corel-Layer"/>
  <path fill="url(#id0)" stroke="#434242" stroke-width="10" d="M258 55l101 180 100 179c1,4 1,8 0,11 -2,3 -5,5 -9,5l-200 0 -200 0c-4,0 -7,-2 -9,-5 -1,-3 -1,-7 0,-11l100 -179 100 -180c2,-3 5,-5 9,-5 4,0 7,2 8,5z"/>
  <path fill="url(#id1)" stroke="#434242" stroke-width="10" stroke-linejoin="round" d="M255 327l-10 0c-1,-15 -4,-33 -10,-55l-12 -43c-7,-26 -10,-44 -10,-55 0,-10 3,-19 10,-25 7,-6 16,-9 27,-9 11,0 20,3 27,9 7,7 10,15 10,24 0,10 -3,29 -11,56l-12 43c-4,16 -7,34 -9,55zm-5 11c17,0 30,14 30,30 0,17 -13,30 -30,30 -17,0 -30,-13 -30,-30 0,-16 13,-30 30,-30z"/>
 </g>
</svg>
